<?xml version="1.0" standalone="no"?>
<!DOCTYPE svg PUBLIC "-//W3C//DTD SVG 20010904//EN"
 "http://www.w3.org/TR/2001/REC-SVG-20010904/DTD/svg10.dtd">
<svg version="1.0" xmlns="http://www.w3.org/2000/svg"
 width="196.750000pt" height="111.000000pt" viewBox="0 0 787.000000 444.000000"
 preserveAspectRatio="xMidYMid meet">
<metadata>
Created by potrace 1.15, written by Peter Selinger 2001-2017
</metadata>
<g transform="translate(0.000000,444.000000) scale(0.100000,-0.100000)"
fill="#000000" stroke="none">
<path d="M5855 4380 c-3 -5 -134 -373 -291 -817 -157 -445 -296 -839 -310
-877 l-24 -68 162 4 c251 5 191 -36 910 616 l48 44 -14 -39 c-8 -21 -43 -118
-80 -215 -36 -98 -68 -200 -72 -226 -9 -69 20 -132 72 -158 36 -17 67 -19 389
-22 242 -3 367 0 405 8 63 14 139 49 184 86 32 27 86 109 86 132 0 9 -66 12
-295 12 -162 0 -295 3 -295 7 0 4 34 102 76 218 86 236 97 299 66 355 -31 57
-71 73 -191 80 l-105 5 167 171 c92 95 167 174 167 178 0 3 -73 6 -163 6
l-162 0 -290 -290 c-159 -159 -291 -288 -293 -286 -2 2 83 245 187 540 105
294 191 538 191 541 0 10 -519 5 -525 -5z"/>
<path d="M3723 3650 c-141 -26 -205 -64 -497 -306 -132 -108 -237 -191 -234
-183 25 68 158 448 158 453 0 3 -298 6 -662 6 l-663 0 -269 -355 c-148 -195
-272 -352 -275 -349 -3 3 -8 162 -11 352 l-5 347 -255 3 c-140 1 -259 1 -265
-2 -7 -2 0 -164 21 -497 18 -272 32 -495 33 -496 1 -2 133 -3 294 -3 l292 1
308 379 308 380 271 0 c253 0 270 -1 263 -17 -23 -61 -255 -727 -255 -735 0
-6 72 -8 188 -6 170 3 191 5 232 25 25 13 177 134 338 269 161 135 295 244
296 242 2 -1 -23 -72 -55 -157 -66 -175 -82 -239 -73 -288 18 -94 159 -140
290 -95 89 31 157 80 437 314 150 124 273 225 275 223 2 -2 -17 -70 -42 -152
-63 -203 -61 -258 11 -324 65 -61 59 -60 466 -57 l372 3 67 33 c39 19 77 46
92 67 24 31 56 104 56 126 0 5 -134 9 -299 9 l-298 0 100 278 c80 224 100 290
104 347 5 84 -13 121 -73 151 -88 43 -271 13 -388 -65 -30 -20 -156 -123 -281
-228 -124 -106 -225 -191 -225 -189 0 2 25 73 55 157 31 85 58 172 61 194 6
50 -19 102 -62 127 -38 22 -131 30 -201 18z"/>
<path d="M693 720 c-61 -37 -71 -99 -24 -152 27 -30 35 -33 86 -33 51 0 59 3
86 33 84 94 -38 220 -148 152z"/>
<path d="M1583 720 c-61 -37 -71 -99 -24 -152 27 -30 35 -33 86 -33 51 0 59 3
86 33 84 94 -38 220 -148 152z"/>
<path d="M4976 681 c-4 -5 -44 -117 -90 -248 -46 -131 -87 -246 -91 -255 -6
-16 -1 -18 48 -18 62 0 66 2 196 119 47 42 81 67 77 56 -31 -75 -45 -138 -36
-156 10 -17 23 -19 136 -19 90 0 133 4 153 15 24 12 41 33 41 51 0 2 -38 4
-85 4 -47 0 -85 2 -85 3 0 2 9 30 20 62 34 98 23 135 -41 135 -21 0 -18 6 26
50 l49 50 -54 0 -55 0 -83 -82 -83 -83 45 125 c24 69 49 138 55 153 6 16 11
33 11 38 0 12 -147 12 -154 0z"/>
<path d="M6741 462 c-44 -125 -81 -239 -81 -253 0 -42 17 -49 120 -49 171 0
261 45 315 157 l30 63 48 0 c48 0 48 0 33 -22 -21 -29 -20 -107 0 -137 36 -51
82 -61 287 -61 146 0 194 3 216 15 24 12 41 33 41 51 0 2 -85 4 -190 4 -222 0
-219 -1 -188 92 l20 58 44 0 c24 0 44 -2 44 -5 0 -3 -9 -24 -20 -45 l-20 -40
74 0 c69 0 76 2 95 26 37 47 22 95 -37 122 -30 13 -83 17 -291 20 -139 2 -269
1 -288 -3 -43 -8 -83 -46 -83 -78 0 -13 9 -36 20 -50 l20 -25 -26 -31 c-23
-27 -86 -52 -100 -39 -3 4 107 325 153 446 4 9 -15 12 -75 12 l-79 0 -82 -228z"/>
<path d="M1976 568 c-31 -48 -49 -65 -90 -84 -28 -13 -56 -24 -63 -24 -10 0
-33 -50 -33 -71 0 -5 14 -9 30 -9 17 0 30 -3 30 -6 0 -4 -11 -38 -25 -76 -28
-77 -31 -108 -13 -126 8 -8 61 -12 170 -12 155 0 159 1 183 25 14 13 25 29 25
35 0 6 -41 10 -114 10 l-115 0 26 75 c13 41 30 75 36 75 50 0 127 43 127 70 0
6 -25 10 -55 10 l-54 0 29 81 c17 44 30 82 30 85 0 2 -19 4 -42 3 -41 0 -45
-2 -82 -61z"/>
<path d="M6147 569 c-64 -98 -78 -103 -352 -109 -220 -5 -232 -6 -280 -30 -64
-32 -95 -77 -95 -141 0 -65 33 -103 108 -125 110 -32 238 -1 281 69 23 37 27
96 11 128 -10 18 -6 19 95 19 58 0 105 -4 105 -9 0 -5 -11 -39 -25 -75 -28
-73 -31 -106 -13 -124 8 -8 61 -12 170 -12 155 0 159 1 183 25 14 13 25 29 25
35 0 6 -41 10 -114 10 l-115 0 26 75 c13 41 30 75 36 75 50 0 127 43 127 70 0
6 -24 10 -54 10 l-55 0 30 80 c16 44 29 83 29 85 0 3 -19 5 -42 4 -41 0 -45
-3 -81 -60z m-449 -201 c-3 -7 -15 -43 -27 -80 -21 -62 -25 -68 -50 -68 -15 0
-35 6 -45 13 -18 13 -18 16 3 80 l23 67 50 0 c36 0 49 -4 46 -12z"/>
<path d="M1134 532 c-46 -51 -50 -60 -43 -87 8 -28 4 -34 -49 -82 l-57 -52 44
-1 c32 0 51 6 68 21 l22 22 11 -27 c13 -36 13 -59 -2 -79 -12 -16 -17 -15 -62
8 -60 30 -95 32 -130 4 -31 -24 -33 -52 -6 -79 19 -19 33 -20 239 -20 206 0
220 1 245 21 48 38 35 49 -55 49 -73 0 -80 2 -74 18 17 39 15 62 -9 134 -19
59 -24 88 -19 126 5 44 3 51 -18 66 -36 25 -50 19 -105 -42z"/>
<path d="M3155 459 c-17 -4 -63 -36 -103 -70 -41 -33 -75 -59 -78 -57 -2 3 5
30 15 61 11 30 17 58 14 61 -12 12 -140 6 -150 -6 -5 -7 -29 -69 -53 -138 -24
-69 -45 -131 -48 -137 -5 -16 99 -18 127 -4 10 6 53 39 96 75 43 36 80 64 82
62 2 -1 -4 -23 -13 -49 -18 -53 -16 -86 7 -100 33 -20 84 2 177 79 51 41 92
70 92 65 0 -6 -5 -31 -12 -55 -11 -40 -10 -47 7 -66 16 -18 30 -20 140 -20
109 0 125 2 149 21 48 38 35 49 -60 49 -63 0 -85 3 -82 13 2 6 17 52 33 100
l30 89 -24 19 c-45 37 -95 19 -201 -72 -44 -38 -71 -56 -66 -44 4 11 13 40 19
63 10 39 10 45 -8 58 -21 16 -45 17 -90 3z"/>
<path d="M4585 459 c-17 -4 -62 -34 -100 -65 -39 -32 -76 -62 -83 -67 -8 -6
-3 17 12 57 19 53 21 68 11 72 -7 3 -155 4 -327 2 l-314 -3 -49 -26 c-116 -59
-128 -197 -23 -250 53 -27 153 -36 212 -19 94 26 152 110 127 182 -6 17 -11
33 -11 34 0 2 47 4 105 4 58 0 105 -2 105 -4 0 -2 -16 -49 -35 -105 -19 -55
-35 -103 -35 -106 0 -12 104 -4 133 11 17 9 62 43 99 75 38 33 70 59 73 59 2
0 -3 -20 -11 -44 -9 -25 -14 -57 -12 -73 l3 -28 138 -3 138 -3 32 33 32 33
-92 3 -91 3 29 80 c51 140 34 178 -66 148z m-665 -87 c0 -4 -11 -39 -23 -78
-25 -72 -36 -81 -83 -70 -29 8 -31 28 -7 103 l17 53 48 0 c26 0 48 -4 48 -8z"/>
<path d="M85 450 c-5 -9 -2 -72 11 -227 l6 -63 88 0 88 0 88 110 89 109 82 1
82 0 -30 -84 c-28 -81 -29 -112 -5 -128 21 -15 245 -9 275 7 24 12 41 33 41
51 0 2 -38 4 -85 4 -47 0 -85 3 -85 8 0 4 16 51 35 105 19 54 35 102 35 107 0
6 -77 10 -194 10 l-194 0 -84 -107 -83 -108 -3 108 -3 107 -74 0 c-40 0 -77
-4 -80 -10z"/>
<path d="M1529 433 c-6 -16 -27 -72 -45 -127 -32 -92 -34 -100 -19 -122 15
-23 20 -24 136 -24 86 0 128 4 148 15 24 12 41 33 41 51 0 2 -38 4 -85 4 -47
0 -85 2 -85 5 0 3 16 51 35 106 19 56 35 105 35 110 0 5 -34 9 -75 9 -73 0
-76 -1 -86 -27z"/>
<path d="M2353 450 c-57 -12 -96 -34 -126 -70 -67 -79 -36 -183 62 -210 20 -5
121 -10 224 -10 l189 0 31 33 32 32 -200 6 c-110 3 -201 6 -202 7 -7 5 -1 40
14 89 l17 53 48 0 48 0 -20 -40 c-11 -21 -20 -42 -20 -45 0 -3 32 -5 70 -5 82
0 110 18 110 73 0 58 -48 85 -164 92 -39 2 -90 0 -113 -5z"/>
<path d="M6501 254 c-33 -42 -26 -76 21 -100 49 -25 108 6 108 58 0 65 -88 94
-129 42z"/>
</g>
</svg>
