<?xml version="1.0" standalone="no"?>
<!DOCTYPE svg PUBLIC "-//W3C//DTD SVG 20010904//EN"
 "http://www.w3.org/TR/2001/REC-SVG-20010904/DTD/svg10.dtd">
<svg version="1.0" xmlns="http://www.w3.org/2000/svg"
 width="64.000000pt" height="29.250000pt" viewBox="0 0 256.000000 117.000000"
 preserveAspectRatio="xMidYMid meet">
<metadata>
Created by potrace 1.15, written by Peter Selinger 2001-2017
</metadata>
<g transform="translate(0.000000,117.000000) scale(0.100000,-0.100000)"
fill="#fff" stroke="none">
<path d="M1995 1109 c-13 -21 -235 -994 -230 -1008 7 -18 104 -10 138 12 14 9
79 89 144 178 64 88 119 157 121 151 1 -5 -9 -57 -23 -116 -32 -139 -32 -179
0 -211 23 -24 30 -25 149 -25 173 0 229 26 251 113 l7 27 -111 0 c-82 0 -111
3 -111 13 0 6 14 72 31 145 28 117 31 137 20 172 -11 36 -17 42 -56 52 -25 7
-45 15 -45 18 0 3 25 45 55 93 30 47 55 89 55 92 0 3 -28 5 -62 3 l-62 -3
-100 -150 c-55 -82 -102 -143 -103 -135 -2 8 26 140 62 293 36 152 65 282 65
287 0 14 -187 13 -195 -1z"/>
<path d="M1129 666 c-26 -18 -137 -144 -206 -235 -2 -2 -6 -2 -9 2 -5 5 14
100 42 213 l6 24 -254 0 -253 0 -98 -195 c-53 -108 -102 -193 -107 -190 -6 4
-10 83 -10 196 l0 189 -101 0 -101 0 7 -192 c4 -106 10 -236 14 -288 l6 -95
106 -3 c77 -2 109 1 116 10 6 7 52 92 103 188 51 96 103 192 116 213 l24 37
90 0 c72 0 92 -3 96 -15 4 -9 -14 -106 -40 -216 -25 -111 -43 -205 -40 -210 9
-16 107 -10 141 9 17 9 77 75 133 145 56 71 104 126 107 123 3 -3 -4 -49 -17
-102 -25 -107 -21 -155 13 -179 55 -38 98 -8 232 161 59 74 110 133 112 130 3
-2 -2 -39 -11 -81 -9 -43 -16 -90 -16 -107 0 -36 24 -84 49 -98 30 -16 255
-13 296 4 38 16 62 47 71 94 l7 32 -112 0 c-66 0 -111 4 -111 10 0 5 16 78 36
162 55 228 47 288 -35 288 -56 0 -94 -31 -188 -150 -79 -101 -115 -134 -99
-95 3 9 14 54 23 101 16 76 16 87 3 112 -22 39 -90 43 -141 8z"/>
</g>
</svg>
