<?xml version="1.0" standalone="no"?>
<!DOCTYPE svg PUBLIC "-//W3C//DTD SVG 20010904//EN"
 "http://www.w3.org/TR/2001/REC-SVG-20010904/DTD/svg10.dtd">
<svg version="1.0" xmlns="http://www.w3.org/2000/svg"
 width="64.000000pt" height="64.000000pt" viewBox="0 0 256.000000 256.000000"
 preserveAspectRatio="xMidYMid meet">
<metadata>
Created by potrace 1.15, written by Peter Selinger 2001-2017
</metadata>
<g transform="translate(0.000000,256.000000) scale(0.100000,-0.100000)"
fill="#fff" stroke="none">
<path d="M1796 1558 c-9 -24 -49 -137 -90 -253 l-74 -210 49 -3 c60 -4 85 9
176 92 39 36 73 66 76 66 2 0 -5 -26 -15 -57 -15 -43 -17 -62 -9 -80 10 -22
15 -23 131 -23 87 0 129 4 149 15 24 12 41 33 41 51 0 2 -36 4 -80 4 -44 0
-80 3 -80 8 0 4 9 31 20 60 33 87 24 122 -34 122 l-30 0 49 50 49 50 -55 0
c-54 0 -55 0 -124 -70 -38 -38 -70 -68 -72 -67 -1 2 20 66 47 142 28 77 50
141 50 142 0 2 -36 3 -79 3 l-79 0 -16 -42z"/>
<path d="M1165 1371 c-22 -10 -62 -38 -89 -60 -27 -23 -50 -40 -53 -38 -2 2 4
23 12 47 8 23 15 47 15 51 0 6 -84 8 -192 7 l-193 -3 -70 -92 -70 -93 -3 95
-3 95 -80 0 -81 0 7 -122 c9 -183 0 -168 103 -168 l87 1 84 104 85 105 68 0
c37 0 68 -4 68 -8 0 -5 -13 -48 -30 -97 -16 -49 -30 -92 -30 -97 0 -4 26 -8
59 -8 63 0 66 2 173 93 l58 49 -15 -42 c-21 -59 -19 -87 6 -101 38 -20 83 -1
172 71 70 57 85 65 77 44 -15 -38 -12 -80 6 -98 12 -13 40 -16 135 -16 114 0
121 1 144 25 40 39 32 45 -55 45 -44 0 -80 4 -80 9 0 6 12 42 26 81 31 87 29
121 -8 134 -42 15 -95 -7 -169 -68 l-66 -55 16 44 c12 34 13 49 5 63 -15 24
-71 26 -119 3z"/>
<path d="M1575 625 c-15 -57 -20 -65 -41 -65 -21 0 -23 3 -14 26 6 14 10 27
10 30 0 8 -42 4 -62 -7 -15 -8 -19 -8 -14 0 5 8 -24 11 -99 11 l-107 0 -11
-30 c-7 -18 -19 -30 -30 -30 -14 0 -16 4 -7 19 5 11 10 24 10 30 0 15 -112 11
-137 -5 -20 -12 -22 -12 -17 1 5 11 -1 15 -24 15 -25 0 -30 -5 -35 -30 -6 -29
-9 -30 -57 -30 -43 0 -50 3 -50 20 0 11 5 20 11 20 5 0 7 -4 4 -10 -4 -6 7
-10 25 -10 25 0 31 4 28 18 -2 13 -15 18 -51 20 -52 3 -77 -9 -77 -39 0 -14
-7 -19 -29 -19 -24 0 -28 4 -24 19 3 11 15 22 26 26 17 6 19 8 6 12 -11 3 -15
12 -11 28 3 15 0 25 -8 25 -17 0 -72 -58 -66 -69 10 -16 -5 -41 -25 -41 -15 0
-17 5 -12 30 5 27 3 30 -21 30 -21 0 -28 -6 -33 -30 -4 -22 -11 -30 -27 -30
-14 0 -22 7 -23 18 -5 65 -9 77 -28 77 -11 0 -24 -10 -30 -21 -6 -12 -17 -29
-24 -38 -12 -14 -10 -16 15 -17 17 -1 7 -5 -25 -10 -30 -5 -56 -8 -58 -6 -2 3
1 16 6 31 l11 26 -57 0 c-38 0 -62 -5 -75 -17 -17 -15 -18 -15 -18 0 0 11 -8
17 -25 17 -22 0 -25 -4 -25 -40 0 -37 2 -40 28 -40 18 0 38 11 57 30 37 39 53
39 47 0 l-4 -30 328 1 c221 0 332 3 341 11 9 7 13 7 13 -1 0 -15 43 -14 58 1
10 10 15 10 20 1 5 -7 42 -12 105 -12 86 0 98 2 107 20 6 11 8 24 5 29 -3 6 5
10 19 10 23 0 25 -2 16 -26 -6 -14 -10 -27 -10 -30 0 -8 41 -4 61 6 13 7 19 7
19 0 0 -6 27 -10 67 -10 54 0 71 4 89 21 l23 21 -6 -21 c-5 -20 -2 -20 93 -20
101 0 124 8 124 40 0 12 7 19 20 19 16 0 19 -5 14 -30 l-6 -30 55 0 c31 0 59
5 62 10 4 6 -8 10 -28 10 -30 0 -34 3 -30 19 3 11 15 22 26 26 17 6 19 8 6 12
-11 3 -15 12 -11 28 6 33 -14 32 -44 0 -20 -22 -32 -25 -88 -25 -80 0 -96 -6
-96 -36 0 -18 -6 -24 -21 -24 -19 0 -21 4 -15 30 3 19 1 30 -5 30 -8 0 -7 5 1
15 11 13 8 15 -13 15 -14 0 -31 -8 -36 -17 -13 -23 -14 -2 -1 31 9 24 7 26
-19 26 -26 0 -29 -4 -46 -65z"/>
<path d="M2101 668 c-5 -13 -11 -37 -15 -53 -5 -25 -12 -31 -34 -30 -20 0 -27
-5 -27 -20 0 -18 8 -20 68 -23 65 -3 69 -1 97 28 l29 31 3 -28 c3 -28 4 -28
81 -31 48 -2 77 1 77 8 0 5 -22 10 -49 10 -53 0 -65 7 -50 30 6 11 9 12 9 2 0
-9 10 -12 28 -10 16 2 27 9 27 18 0 12 -19 16 -103 18 -76 2 -103 6 -99 15 19
53 19 57 -8 57 -17 0 -28 -7 -34 -22z"/>
</g>
</svg>
