<?xml version="1.0" standalone="no"?>
<!DOCTYPE svg PUBLIC "-//W3C//DTD SVG 20010904//EN"
 "http://www.w3.org/TR/2001/REC-SVG-20010904/DTD/svg10.dtd">
<svg version="1.0" xmlns="http://www.w3.org/2000/svg"
 width="64.000000pt" height="64.000000pt" viewBox="0 0 256.000000 256.000000"
 preserveAspectRatio="xMidYMid meet">
    <metadata>
        Created by potrace 1.15, written by Peter Selinger 2001-2017
    </metadata>
    <g transform="translate(0.000000,256.000000) scale(0.100000,-0.100000)"
    fill="#fff" stroke="none">
        <path d="M1435 1675 l-90 -255 -269 -2 -269 -3 -179 -234 -178 -233 0 153 c0
        85 -3 191 -7 237 l-6 82 -178 0 c-99 0 -179 -3 -179 -7 0 -5 9 -145 20 -313
        11 -168 20 -317 20 -332 l0 -28 199 0 199 0 208 255 207 255 174 0 c95 0 173
        -3 173 -7 0 -5 -38 -116 -85 -247 -47 -132 -85 -244 -85 -249 0 -6 43 -8 111
        -4 92 5 120 10 163 31 30 15 133 99 251 205 110 98 201 178 203 176 1 -1 -18
        -57 -43 -124 -56 -151 -62 -188 -41 -230 28 -53 46 -56 326 -56 245 0 257 1
        305 23 70 32 125 90 125 132 0 6 -66 10 -195 10 -107 0 -195 3 -195 6 0 3 23
        68 50 145 58 161 63 213 26 256 -21 25 -31 28 -100 31 l-77 4 113 117 113 116
        -120 3 -119 3 -184 -183 c-102 -101 -182 -176 -179 -166 3 9 58 162 121 341
        64 179 116 330 116 336 0 8 -58 11 -177 11 l-178 0 -90 -255z"/>
    </g>
</svg>
